<svg width="640" height="520" viewBox="0 0 640 520" fill="none" xmlns="http://www.w3.org/2000/svg">
  <rect width="640" height="520" rx="48" fill="#F3F6FF"/>
  <path d="M150 370C150 320 190 280 240 280C290 280 330 320 330 370V430H150V370Z" fill="#C7D9FF"/>
  <path d="M310 360C310 310 350 270 400 270C450 270 490 310 490 360V430H310V360Z" fill="#9EC2FF"/>
  <circle cx="236" cy="238" r="54" fill="#FCD9C5"/>
  <circle cx="398" cy="230" r="60" fill="#FCD9C5"/>
  <path d="M280 250C275 278 254 299 230 299C206 299 185 278 180 250C180 220 204 196 234 196C264 196 288 220 288 250H280Z" fill="#0F172A" fill-opacity="0.06"/>
  <path d="M440 236C433 271 406 299 372 299C338 299 311 271 304 236C304 200 333 171 369 171C405 171 434 200 434 236H440Z" fill="#0F172A" fill-opacity="0.06"/>
  <path d="M206 216C214 194 233 180 256 180C266 180 276 183 284 188C283 160 261 140 234 140C205 140 182 163 182 192C182 205 187 217 195 226C196 220 200 216 206 216Z" fill="#2563EB"/>
  <path d="M360 177C371 154 393 139 417 139C429 139 440 143 449 150C449 117 422 90 389 90C354 90 326 118 326 153C326 168 331 182 340 193C340 185 348 177 360 177Z" fill="#1D4ED8"/>
  <rect x="370" y="334" width="130" height="18" rx="9" fill="#F3F6FF"/>
  <rect x="200" y="346" width="90" height="16" rx="8" fill="#F3F6FF"/>
  <path d="M268 336C278 316 297 304 318 304C341 304 361 318 371 338L394 380H247L268 336Z" fill="#2563EB"/>
  <path d="M196 334C201 314 218 300 238 300C256 300 272 310 279 326C261 341 251 361 247 380H190C190 364 191 348 196 334Z" fill="#1D4ED8"/>
  <circle cx="181" cy="260" r="18" fill="#FCD9C5"/>
  <circle cx="453" cy="254" r="18" fill="#FCD9C5"/>
  <path d="M160 398H504" stroke="#CBDDFE" stroke-width="10" stroke-linecap="round"/>
  <rect x="130" y="410" width="360" height="36" rx="16" fill="#E4EDFF"/>
  <path d="M490 418C506 412 520 400 527 383C540 351 525 312 492 298C474 291 455 295 440 306" stroke="#1D4ED8" stroke-width="14" stroke-linecap="round"/>
  <circle cx="505" cy="280" r="22" fill="#FCD9C5"/>
  <path d="M496 252C501 236 516 225 533 225C546 225 558 231 565 241C570 226 561 209 543 203C522 196 499 207 492 228C490 234 489 241 490 248C492 249 494 251 496 252Z" fill="#2563EB"/>
</svg>
